<svg width="199" height="67" viewBox="0 0 199 67" fill="none" xmlns="http://www.w3.org/2000/svg">
<path d="M53.1864 52.8295C51.8114 54.6889 49.9677 55.6186 47.6552 55.6186C45.3271 55.6186 43.5614 54.8217 42.3583 53.228C41.1552 51.6186 40.5536 49.2827 40.5536 46.2202V29.7905H47.1864V46.3842C47.2177 48.853 48.038 50.0874 49.6474 50.0874C51.163 50.0874 52.2567 49.4311 52.9286 48.1186V29.7905H59.6083V55.1499H53.3739L53.1864 52.8295ZM84.1005 43.267C84.1005 47.2514 83.413 50.3061 82.038 52.4311C80.6786 54.5561 78.6474 55.6186 75.9442 55.6186C73.8817 55.6186 72.2255 54.7827 70.9755 53.1108V64.8999H64.3427V29.7905H70.4833L70.7177 32.1108C71.9833 30.2514 73.7099 29.3217 75.8974 29.3217C78.6005 29.3217 80.6317 30.3061 81.9911 32.2749C83.3661 34.2436 84.0692 37.2592 84.1005 41.3217V43.267ZM77.4911 41.603C77.4911 39.1499 77.2177 37.4155 76.6708 36.3999C76.1396 35.3842 75.2333 34.8764 73.9521 34.8764C72.5927 34.8764 71.6005 35.4467 70.9755 36.5874V48.4702C71.5692 49.5639 72.5771 50.1108 73.9989 50.1108C75.3114 50.1108 76.2177 49.5561 76.7177 48.4467C77.2333 47.3374 77.4911 45.6108 77.4911 43.267V41.603ZM97.4364 21.0249L103.882 45.7045L110.304 21.0249H119.304V55.1499H112.39V45.9155L113.022 31.6889L106.202 55.1499H101.515L94.6942 31.6889L95.3271 45.9155V55.1499H88.4364V21.0249H97.4364ZM131.491 55.1499H124.835V29.7905H131.491V55.1499ZM124.53 23.228C124.53 22.1967 124.858 21.353 125.515 20.6967C126.171 20.0405 127.046 19.7124 128.14 19.7124C129.233 19.7124 130.108 20.0405 130.765 20.6967C131.421 21.353 131.749 22.1967 131.749 23.228C131.749 24.2436 131.421 25.0874 130.765 25.7592C130.124 26.4311 129.249 26.767 128.14 26.767C127.03 26.767 126.147 26.4311 125.491 25.7592C124.85 25.0874 124.53 24.2436 124.53 23.228ZM142.694 29.7905L142.882 32.2983C144.382 30.3139 146.343 29.3217 148.765 29.3217C153.124 29.3217 155.366 32.3764 155.491 38.4858V55.1499H148.835V38.978C148.835 37.5405 148.616 36.5014 148.179 35.8608C147.757 35.2045 147.007 34.8764 145.929 34.8764C144.725 34.8764 143.788 35.4936 143.116 36.728V55.1499H136.46V29.7905H142.694ZM170.491 55.6186C167.085 55.6186 164.429 54.603 162.522 52.5717C160.616 50.5405 159.663 47.6342 159.663 43.853V41.8374C159.663 37.8374 160.538 34.7514 162.288 32.5795C164.038 30.4077 166.546 29.3217 169.811 29.3217C172.999 29.3217 175.397 30.3452 177.007 32.392C178.616 34.4233 179.436 37.4389 179.468 41.4389V44.6967H166.272C166.366 46.5717 166.78 47.9467 167.515 48.8217C168.249 49.6811 169.382 50.1108 170.913 50.1108C173.132 50.1108 174.983 49.353 176.468 47.8374L179.069 51.8452C178.257 52.9702 177.077 53.8842 175.53 54.5874C173.983 55.2749 172.304 55.6186 170.491 55.6186ZM166.319 40.0561H172.952V39.4467C172.921 37.9311 172.671 36.7827 172.202 36.0014C171.733 35.2202 170.921 34.8295 169.765 34.8295C168.608 34.8295 167.765 35.2436 167.233 36.0717C166.718 36.8999 166.413 38.228 166.319 40.0561ZM195.733 36.1889L193.53 36.0014C191.718 36.0014 190.491 36.7983 189.85 38.392V55.1499H183.194V29.7905H189.452L189.64 32.5327C190.686 30.392 192.132 29.3217 193.975 29.3217C194.725 29.3217 195.335 29.4233 195.804 29.6264L195.733 36.1889Z" fill="white"/>
<circle cx="24.0437" cy="14.0563" r="14.0563" fill="white"/>
<circle cx="10.3069" cy="38.6549" r="9.90333" fill="white"/>
<circle cx="20.2102" cy="54.3086" r="5.1114" fill="white"/>
</svg>
